<svg xmlns="http://www.w3.org/2000/svg" fill="none" viewBox="0 0 538 533">
  <path opacity=".2" fill-rule="evenodd" clip-rule="evenodd" d="M174.034 110.595c-36.099 37.915-21.853 96.439-28.484 148.369-6.899 54.032-49.838 119.176-10.489 156.841 40.078 38.363 104.266-19.776 159.468-14.237 54.471 5.466 105.509.027 119.179-18.744 13.669-18.772 45.573-36.916 43.933-90.718-1.29-42.362.534-83.661-20.193-120.629-25.609-45.675-56.153-94.741-107.172-106.533-54.956-12.702-117.348 4.8-156.242 45.651z" fill="#CCC"/>
  <path fill-rule="evenodd" clip-rule="evenodd" d="M326.427 92.723c47.389 15.428 103.552 29.382 122.4 75.518 19.458 47.628-3.51 102.299-32.348 144.906-25.748 38.041-69.502 54.329-112.83 69.587-45.591 16.054-93.493 37.158-138.213 18.816-47.596-19.521-83.83-64.056-94.685-114.341-10.167-47.091 13.202-93.635 41.343-132.738 23.927-33.247 60.427-52.029 99.789-63.37 38.144-10.989 76.798-10.666 114.544 1.622z" fill="#FCE3C0"/>
</svg>
