<svg xmlns="http://www.w3.org/2000/svg" fill="none" viewBox="0 0 392 416">
  <path fill="#FFAD55" d="M237.596 287.973h58.999v55.937h-58.999z"/>
  <mask id="w68WfGejOa" style="mask-type:alpha" maskUnits="userSpaceOnUse" x="95" y="213" width="226" height="145">
    <path d="M120.411 350.612c-9.22-30.32-19.163-111.332-24.918-136.894l156.612 24.69.042.019c35.172 15.657 84.73 37.718 62.608 87.806-11.811 26.741-29.668 31.574-64.09 29.496-7.477-10.02-9.318-37.818-.68-57.01a2.846 2.846 0 00-.22-2.77c-1.452-2.135-4.779-1.28-5.021 1.29l-5.527 58.692a2.14 2.14 0 01-2.131 1.94h-39.855c-5.548 0-10.121-4.373-10.332-9.917-.598-15.723-.716-27.449-.038-43.315.211-4.932-3.704-9.082-8.641-9.082-5.004 0-8.946 4.257-8.611 9.25.84 12.508 1.336 23.644 1.785 39.763.201 7.194-5.758 13.038-12.948 12.727l-30.881-1.334c-3.29-.142-6.196-2.201-7.154-5.351z" fill="#F18024"/>
  </mask>
  <g mask="url(#w68WfGejOa)">
    <path d="M117.635 340.132c-8.386-35.449-16.961-103.401-22.142-126.414l156.612 24.69.042.019c35.172 15.657 84.73 37.718 62.608 87.806-2.322 5.257-4.878 9.668-7.747 13.346-1.18 1.512-13.075 14.596-17.558 6.855-5.052-8.724-4.89-30.149-10.3-26.288l1.035 15.266c1.209 8.373 2.529 17.165 1.202 17.741-10.317 4.48-14.776 3.632-32.267 2.576-4.628-4.91-4.823-19.639-.079-57.816a2.21 2.21 0 00-.195-1.215c-.95-1.987-3.913-1.46-4.12.733l-5.55 58.939a1.656 1.656 0 01-1.649 1.501h-34.343c-8.877 0-16.213-6.992-16.493-15.865-.432-13.666-.42-24.835.283-39.883.166-3.567-2.668-6.566-6.239-6.566h-5.08c-3.62 0-6.473 3.081-6.221 6.692.948 13.584 1.481 25.112 1.96 42.321.201 7.194-5.758 13.038-12.948 12.727l-20.051-.866c-9.87-.427-18.485-6.686-20.76-16.299z" fill="#FF8227"/>
    <path d="M254.873 239.64c21.758 9.71 48.005 21.982 59.5 41.651-.681 25.659-15.477 68.283-16.592 40.707 25.356-40.707-24.323-65.993-51.216-77.325l8.308-5.033z" fill="#E55F1C"/>
    <path d="M257.709 293.324c-.115-.203-.152-.442-.158-.676-.137-5.24-.745-7.885-2.489-10.91-.579-1.002-2.202-3.02-3.359-4.124-10.466-9.979-25.043-12.447-35.579-18.648l15.752-10.376 7.324 9.164c3.233 4.045 6.721 7.027 11.077 9.828l5.995 3.856c3.918 2.519 6.037 7.776 6.037 12.161 0 4.069-.641 8.227-.734 8.804a6.715 6.715 0 00-.019.14c-.253 2.005-2.906 2.447-3.847.781z" fill="#591C00"/>
    <path d="M267.125 265.37c-.82-.719-1.789-1.231-2.768-1.714-9.548-4.711-21.01-14.452-24.276-24.116l6.395-2.78c12.093 3.905 24.125 6.968 28.647 20.482 3.151 6.879 3.068 14.71 2.173 22.222-2.129 13.432-6.741 38.921-6.687 41.562a.676.676 0 01-.089.364c-2.97 4.58-.949-21.112 1.869-43.146.103-.805.164-1.616.088-2.424a15.894 15.894 0 00-5.352-10.45zm19.976 12.535c.085-8.667.48-14.553-5.53-23.477-.258-.383.21-.875.597-.624l5.503 3.572 1.622 1.192a8.295 8.295 0 012.705 9.969l-4.112 9.533c-.179.414-.789.285-.785-.165zm10.118-15.3l2.984 2.105a19.143 19.143 0 015.817 6.563c.37.687.57 1.455.544 2.235-.134 4.009-.959 7.981-2.68 11.607-3.657 7.706-6.961 11.766-13.319 14.456 3.008-6.406 4.473-10.663 5.955-17.288.487-2.176.699-4.405.699-6.634v-13.044z" fill="#591C00"/>
    <g filter="url(#w68WfGejOb)">
      <path d="M285.16 191.843c-3.086 59.883-77.48 58.625-133.851 49.674-56.372-8.95-104.172-55.873-88.77-93.821 15.402-37.948 53.876-31.471 88.77-31.471s136.936 15.736 133.851 75.618z" fill="#FCE5C5"/>
    </g>
  </g>
  <path d="M171.394 344.57c-.479-17.209-1.012-28.737-1.96-42.32a6.256 6.256 0 015.074-6.588 6.239 6.239 0 00-.615-.03h-5.08c-3.62 0-6.473 3.082-6.221 6.693.948 13.583 1.481 25.111 1.961 42.32.171 6.149-4.158 11.312-9.908 12.488l3.801.165c7.19.31 13.149-5.534 12.948-12.728zm66.132 13.302c.855 0 1.57-.651 1.65-1.502l.558-5.925c-1.897-7.892-1.15-23.368 2.465-52.456a2.214 2.214 0 00-.195-1.216c-.95-1.987-3.913-1.459-4.12.733l-5.55 58.94a1.659 1.659 0 01-1.155 1.426h6.347z" fill="#E55F1C"/>
  <path fill-rule="evenodd" clip-rule="evenodd" d="M117.635 340.132c-4.804-20.308-9.671-51.285-13.925-78.368-3.172-20.191-6.004-38.217-8.217-48.046l8.001 1.531c2.161 10.102 4.867 27.332 7.881 46.515 4.255 27.083 9.121 58.06 13.926 78.368 2.274 9.613 12.603 15.872 22.473 16.299l13.848.598a12.396 12.396 0 01-3.176.268l-20.051-.866c-9.87-.427-18.485-6.686-20.76-16.299zm65.25-44.194a6.277 6.277 0 014.089 6.185c-.703 15.048-.715 26.217-.283 39.883.28 8.873 7.616 15.865 16.493 15.865h9.379c-8.877 0-17.927-6.992-18.207-15.865-.431-13.666-.42-24.835.283-39.883.167-3.567-2.667-6.566-6.238-6.566h-3.367c-.757 0-1.481.134-2.149.381z" fill="#FFAD55"/>
  <path d="M217.525 353.032c0-5.864 6.401-12.805 12.246-13.284 4.604-.376 12.879 0 16.841 0 34.628 0 62.606-17.586 64.791-59.738 1.061 1.566 1.641 2.543 2.664 4.362 6.417 11.792 7.858 25.627.688 41.861-1.293 2.926-1.927 5.715-4.108 8.011-11.755 23.627-45.386 33.774-81.876 31.828-3.696-.197-8.673-5.018-10.169-8.2a11.365 11.365 0 01-1.077-4.84z" fill="#E25A19"/>
  <mask id="w68WfGejOc" style="mask-type:alpha" maskUnits="userSpaceOnUse" x="217" y="280" width="103" height="87">
    <path d="M217.525 353.032c0-5.864 6.401-12.805 12.246-13.284 4.604-.376 12.879 0 16.841 0 34.628 0 62.606-17.586 64.791-59.738 1.061 1.566 1.641 2.543 2.664 4.362 6.417 11.792 7.858 25.627.688 41.861-1.293 2.926-1.927 5.715-4.108 8.011-11.755 23.627-45.386 33.774-81.876 31.828-3.696-.197-8.673-5.018-10.169-8.2a11.365 11.365 0 01-1.077-4.84z" fill="#E46D34"/>
  </mask>
  <g mask="url(#w68WfGejOc)">
    <path d="M284.421 361.402l-20.018-24.98 16.253-6.673c5.466 7.075 5.395 11.334 22.927 17.281l-19.162 14.372zM243.7 337.62h14.201c3.97 14.317 7.622 18.499 14.372 25.322l-4.449 1.368c-10.193-8.205-18.362-12.248-24.124-26.69zm8.726 29.599c-10.58-9.933-12.272-15.05-14.543-28.23h-8.212c-2.096 11.449-2.302 18.016 4.79 28.23h17.965zm63.408-58.514h6.828l.939-12.832h-7.944c-2.349 0-4.657.947-6.021 2.86-.148.207-.289.413-.426.619-2.874 4.338 1.42 9.353 6.624 9.353zm-18.358 24.722h14.491l-4.573 9.918c-3.811-2.479-7.759-3.882-9.918-9.918zm2.871-17.095c7.671 3.368 13.611 2.67 20.227.913-5.082 6.794-10.907 8.187-24.794 7.83l4.567-8.743z" fill="#591C00"/>
    <path opacity=".6" fill-rule="evenodd" clip-rule="evenodd" d="M217.525 353.032c0-5.864 6.401-12.805 12.246-13.284 3.238-.265 8.293-.157 12.385-.07 1.726.037 3.281.07 4.456.07 27.45 0 50.72-11.051 60.277-36.628h.69c-8.291 27.616-28.889 42.653-55.936 42.653-1.174 0-2.727-.033-4.451-.069l-.005-.001c-4.093-.087-9.147-.195-12.386.07-5.844.479-12.245 7.42-12.245 13.284 0 1.612.338 3.163.953 4.568-2.166-1.706-4.075-3.983-4.907-5.754a11.36 11.36 0 01-1.077-4.839z" fill="#FFAD55"/>
  </g>
  <path d="M95.493 213.718l.222-1.411-2.078-.328.463 2.052 1.393-.313zm22.142 126.414l1.39-.329-1.39.329zm20.76 16.299l.061-1.427-.061 1.427zm20.051.866l-.062 1.427.062-1.427zm12.948-12.727l1.428-.04-1.428.04zm-1.96-42.321l1.425-.099-1.425.099zm17.54-.126l-1.427-.067 1.427.067zm-.283 39.883l-1.428.045 1.428-.045zm16.493 15.865v-1.428 1.428zm48.921-119.463l.581-1.305-.172-.076-.187-.03-.222 1.411zm62.65 87.825l-1.306-.577 1.306.577zm-62.608-87.806l-.581 1.305.581-1.305zm-22.376 101.322l.116 1.423-.116-1.423zm-.999 26.324l-.076 1.426.076-1.426zm81.875-31.828l-1.036-.984-.148.156-.095.192 1.279.636zm-64.035 5.504l.084 1.425-.084-1.425zm34.858-7.278a1.427 1.427 0 102.712-.894l-2.712.894zm-40.72 7.178l-.029 1.428.029-1.428zM94.1 214.031c2.577 11.448 6.005 34.117 9.851 58.453 3.838 24.284 8.087 50.19 12.295 67.977l2.779-.658c-4.178-17.662-8.411-43.456-12.252-67.765-3.833-24.255-7.283-47.068-9.887-58.634l-2.786.627zm44.233 143.827l20.051.866.124-2.854-20.052-.866-.123 2.854zm34.489-13.328c-.48-17.224-1.014-28.773-1.963-42.38l-2.85.199c.947 13.559 1.478 25.067 1.958 42.261l2.855-.08zm2.833-47.545h5.08v-2.857h-5.08v2.857zm9.892 5.071c-.705 15.089-.717 26.295-.284 39.995l2.855-.09c-.43-13.633-.419-24.763.282-39.771l-2.853-.134zm66.78-65.059l-156.612-24.69-.445 2.822 156.612 24.69.445-2.822zm63.734 89.813c5.63-12.746 6.747-23.828 4.584-33.536-2.16-9.697-7.561-17.873-14.71-24.876-14.239-13.948-35.683-23.475-53.207-31.276l-1.162 2.61c17.648 7.856 38.569 17.188 52.371 30.707 6.872 6.731 11.911 14.44 13.92 23.456 2.007 9.005 1.023 19.463-4.408 31.761l2.612 1.154zm-63.333-89.688l-.042-.019-1.162 2.61.042.019 1.162-2.61zm55.406 103.335c2.957-3.789 5.569-8.307 7.927-13.647l-2.612-1.154c-2.286 5.175-4.785 9.478-7.567 13.044l2.252 1.757zm-122.871 1.594c.305 9.657 8.286 17.249 17.921 17.249v-2.857c-8.12 0-14.81-6.393-15.066-14.482l-2.855.09zm-4.528-45.066c2.748 0 4.941 2.31 4.812 5.071l2.853.134c.205-4.373-3.27-8.062-7.665-8.062v2.857zm-9.876 5.165c-.195-2.792 2.01-5.165 4.796-5.165v-2.857c-4.455 0-7.955 3.79-7.646 8.221l2.85-.199zm-12.475 56.574c8.015.347 14.662-6.168 14.438-14.194l-2.855.08c.177 6.362-5.094 11.536-11.459 11.26l-.124 2.854zm-42.138-18.263c2.44 10.317 11.667 16.947 22.087 17.397l.123-2.854c-9.318-.403-17.323-6.291-19.431-15.201l-2.779.658zm102.707 12.571c0-2.453 1.37-5.325 3.553-7.693 2.184-2.368 4.935-3.967 7.381-4.167l-.233-2.847c-3.399.278-6.77 2.39-9.248 5.078-2.478 2.688-4.309 6.219-4.309 9.629h2.856zm-1.644 5.447c.859 1.828 2.628 3.982 4.621 5.696 1.956 1.681 4.429 3.199 6.766 3.324l.152-2.853c-1.361-.072-3.225-1.063-5.056-2.637-1.793-1.542-3.261-3.389-3.898-4.745l-2.585 1.215zm11.387 9.02c18.385.98 36.116-1.081 50.777-6.408 14.657-5.327 26.361-13.966 32.452-26.21l-2.557-1.272c-5.663 11.382-16.651 19.63-30.871 24.797-14.216 5.166-31.546 7.206-49.649 6.24l-.152 2.853zm82.986-32.271c1.248-1.314 2.032-2.749 2.66-4.179.311-.709.591-1.434.864-2.136.276-.711.547-1.405.855-2.103l-2.612-1.154a53.224 53.224 0 00-.906 2.223c-.278.716-.535 1.38-.817 2.022-.558 1.27-1.182 2.378-2.115 3.36l2.071 1.967zm-95.585 17.804c0 1.93.431 3.784 1.212 5.447l2.585-1.215a9.946 9.946 0 01-.941-4.232h-2.856zm55.552-18.403c-.202.003-.415.053-.473.065a18.12 18.12 0 00-.419.098c-.334.082-.762.189-1.332.326-1.125.27-2.74.639-4.828 1.036-4.176.796-10.252 1.708-18.069 2.169l.168 2.851c7.953-.468 14.152-1.398 18.435-2.214a105.37 105.37 0 004.96-1.065c.572-.137 1.036-.253 1.342-.327.159-.039.271-.066.348-.082.135-.029.05-.003-.089-.001l-.043-2.856zm-25.121 3.694c-1.411.083-3.353-.053-5.749-.102l-.058 2.856c2.165.044 4.418.189 5.975.097l-.168-2.851zm-5.749-.102c-3.775-.077-8.161-.138-11.125.104l.233 2.847c2.79-.228 7.02-.173 10.834-.095l.058-2.856zm1.393 1.562l3.942-41.856-2.844-.268-3.942 41.856 2.844.268zM203.184 359.3h15.418v-2.856l-15.418-.001v2.857zm75.096-38.721c.666 3.501 1.73 7.462 3.19 11.892l2.712-.894c-1.432-4.347-2.459-8.185-3.096-11.532l-2.806.534z" fill="#8D3621"/>
  <path fill-rule="evenodd" clip-rule="evenodd" d="M119.519 289.486c-4.135 2.268-1.436 6.113 3.278 5.956 12.572-.418 22.073-.424 34.81.024 3.291.115 5.277-3.398 2.871-5.646-1.867-1.743-4.111-3.192-6.416-3.192-9.547-.544-15.355-.53-24.089-.153-2.216.096-4.424.416-6.496 1.207-1.202.459-2.608 1.064-3.958 1.804zm78.203-1.077a5.21 5.21 0 00-2.618.879l-1.55 1.042a3.691 3.691 0 00-.546 5.678 3.71 3.71 0 002.842 1.072c12.738-.773 20.391-.864 32.398-.012a3.616 3.616 0 002.72-.957c1.753-1.635 1.44-4.496-.624-5.714l-2.1-1.24a5.407 5.407 0 00-2.446-.74c-10.948-.594-17.534-.586-28.076-.008zm-72.595 20.474a6.449 6.449 0 013.454-1.681c9.289-1.377 15.274-1.256 24.711.045 1.21.167 2.35.673 3.295 1.448l2.014 1.653a3.693 3.693 0 01-2.343 6.55h-30.115a3.783 3.783 0 01-2.584-6.549l1.568-1.466zm100.42-.302a5.56 5.56 0 012.813 1.244l1.563 1.302a3.264 3.264 0 01-2.089 5.771h-29.656a3.182 3.182 0 01-1.879-5.751l2.014-1.472a5.703 5.703 0 012.663-1.06c9.434-1.174 15.283-1.283 24.571-.034zm-102.546 19.267c4.7-2.469 9.656-4.448 14.96-4.687 3.603-.162 7.699-.132 11.065.102 4.014.279 7.595 2.183 10.774 4.65 1.561 1.211.704 3.712-1.271 3.712h-34.345c-2.031 0-2.851-2.618-1.183-3.777zm102.801-1.909c-4.035-1.53-20.687-1.471-24.943-.054l-6.723 1.868c-.224.063-.443.156-.611.317-1.293 1.24-.454 3.554 1.455 3.554h34.345c1.879 0 2.745-2.262 1.482-3.525a1.4 1.4 0 00-.471-.293l-4.534-1.867zM202.5 343.044c3.422 1.14 16.813 1.187 20.058-.043l3.595-1.48c.173-.071.34-.16.468-.296.96-1.023.261-2.796-1.23-2.796h-27.619c-1.511 0-2.188 1.802-1.219 2.809.161.168.383.26.607.322l5.34 1.484zm-49.408-.043c-3.337 1.23-17.113 1.183-20.634.043l-5.508-1.488c-.221-.06-.438-.148-.6-.309-1.01-1.006-.314-2.818 1.245-2.818h28.412c1.537 0 2.255 1.78 1.26 2.802a1.346 1.346 0 01-.466.286l-3.709 1.484z" fill="#591C00"/>
  <path d="M98.666 252.437c-2.043-11.515-2.888-21.177-4.648-35.241l161.263 17.683v14.873c0 1.329-1.241 2.333-2.51 1.937-2.442-.762-4.292-1.821-5.757-3.859-12.47 14.991-20.156 20.813-33.166 25.073-1.318.432-2.654-.565-2.654-1.952v-3.834c-8.36 3.334-13.072 11.399-20.539 22.153-1.319 1.899-3.246 3.34-5.51 3.811-3.427.711-6.148.645-9.308-.404-.889-.295-1.701-.774-2.448-1.339-11.149-8.433-19.867-14.106-28.875-24.221v2.79c0 1.645-1.787 2.579-3.028 1.498-6.317-5.503-12.924-14.829-16.619-17.647l-1.076 3.995c-.262 1.929-.522 3.757-.924 3.432-6.413-5.195-8.1-10.759-12.63-17.001l-8.007 9.223c-1.132 1.304-3.263.731-3.564-.97z" fill="#F6CBA0"/>
  <path d="M102.23 253.407l8.007-9.223c1.496 2.061 2.682 4.049 3.831 5.973 2.329 3.904 4.504 7.549 8.799 11.028l.924-3.432.019-.14c.284-2.081.575-4.222 1.057-3.855 1.746 1.332 4.143 4.117 6.852 7.266 3.023 3.513 6.435 7.479 9.767 10.381 1.241 1.081 3.028.147 3.028-1.498v-2.79c7.341 8.244 14.49 13.537 22.919 19.778a720.613 720.613 0 015.956 4.443c.747.565 1.559 1.045 2.448 1.339-8.429-6.241-23.167-22.77-27.937-31.492-.05-.209-.842-.281-.962-.103-1.418 2.109-4.905 5.107-5.816 4.178-5.775-5.889-11.298-15.315-11.651-20.45-.263 1.928-7.53 4.205-7.932 3.88-2.51-2.511-3.741-3.88-5.021-6.025-1.148-1.925-2.45-3.171-2.45-5.451h-3.885c-.6 0-1.149.32-1.702.555-1.138.482-2.565-.157-2.808-1.525-1.309-7.378-3.454-10.744-4.335-18.245l-7.32-.803c.51 4.081.944 7.791 1.353 11.284.998 8.543 1.844 15.783 3.295 23.957.301 1.701 2.432 2.274 3.564.97z" fill="#FFECE3"/>
  <path fill-rule="evenodd" clip-rule="evenodd" d="M255.28 234.879l-12.481 2.011-10.293 8.034-14.812 11.549s-1.541-5.246-3.264-4.126c-13.306 8.645-25.83 29.734-29.876 32.746-3.589 2.673-10.041-5.523-10.041-5.523l1.003 6.778-1.003 5.844c2.449.98 4.571 1.404 6.833 1.356 1.203-.026 2.446-.186 3.799-.467l.006-.001c2.261-.472 4.186-1.912 5.504-3.81.875-1.261 1.713-2.485 2.523-3.668 6.099-8.912 10.636-15.542 18.016-18.485v3.834c0 1.386 1.335 2.384 2.652 1.953h.002c13.01-4.261 20.696-10.082 33.166-25.074 1.465 2.038 3.315 3.097 5.756 3.859 1.27.396 2.51-.607 2.51-1.937v-14.873z" fill="#F1B78F"/>
  <path d="M174.513 292.192l1.003-5.844c-3.032-.397-6.009-1.855-8.285-3.012l2.26 3.012 5.022 5.844z" fill="#F1B78F"/>
  <path d="M122.48 258.81l-.032.13c-2.139-1.957-3.677-3.977-5.062-6.108a102.94 102.94 0 01-2.09-3.403l-.346-.58c-.824-1.378-1.696-2.814-2.705-4.293-.959-1.406-2.952-1.462-4.029-.222l-7.065 8.137a.615.615 0 01-1.079-.283c-1.443-8.131-2.282-15.311-3.278-23.834-.349-2.983-.717-6.131-1.136-9.541l158.194 17.346v13.593a.618.618 0 01-.232.492.445.445 0 01-.424.082c-2.25-.703-3.793-1.62-5.022-3.33l-1.077-1.499-1.181 1.419c-6.208 7.464-11.166 12.571-16.144 16.336-4.956 3.748-9.982 6.203-16.369 8.294a.603.603 0 01-.78-.595v-5.941l-1.958.781c-4.481 1.787-7.931 4.827-11.171 8.704-2.465 2.949-4.869 6.463-7.523 10.342-.804 1.174-1.631 2.383-2.489 3.619-1.147 1.652-2.78 2.843-4.627 3.226-3.218.669-5.681.598-8.568-.36-.698-.232-1.373-.621-2.036-1.123-2.09-1.581-4.087-3.059-6.01-4.483-7.635-5.655-14.111-10.45-20.659-17.368-1.573-1.662-4.496-.624-4.496 1.77v.78c-5.848-4.761-13.713-13.966-16.293-17.054-1.115-1.333-3.261-.71-3.534.972-.183 1.123-.468 2.738-.779 3.994zm-.46 1.443l.005-.009a.092.092 0 01-.005.009z" stroke="#8D3621" stroke-width="2.856"/>
  <path d="M285.16 191.845c-3.086 59.883-77.48 58.624-133.851 49.674-56.372-8.95-104.172-55.873-88.77-93.821 15.403-37.948 53.876-31.471 88.77-31.471s136.936 15.736 133.851 75.618z" fill="#FCE5C5"/>
  <path d="M118.52 53.922c-7.59-8.865-20.898-8.86-29.626-1.112l-4.14 3.676c-10.395 9.227-12.235 25.034-2.627 35.076 8.559 8.945 18.101 16.389 21.588 9.775 6.877-13.042 13.032-20.03 23.078-26.221 5.209-3.21-1.043-12.75-8.273-21.194z" fill="#9F3A30" stroke="#F6822B" stroke-width="3.53"/>
  <g filter="url(#w68WfGejOd)">
    <path d="M117.318 66.428c-4.515-9.01-16.89-7.891-24.427-1.201-8.21 7.288-9.94 19.994-1.84 27.405 4.714 4.312 9.468 6.961 11.715 3.083 5.266-9.09 7.563-9.526 14.456-19.103 2.3-3.194 1.793-6.799.096-10.184z" fill="#F56E38"/>
  </g>
  <path d="M68.9 138.2c.91-6.707 6.244-11.552 11.807-15.409 4.9-3.398 10.447-8.653 13.264-16.162 5.712-15.232 42.067-81.437 113.866-55.968 65.06 23.078 66 74.426 64.502 90.921a17.069 17.069 0 002.01 9.735c6.975 12.717 22.071 48.485-22.128 58.347-35.554 7.934-30.708-37.217-76.921-45.907-54.232-10.197-51.026 30.845-85.679 15.232-21.148-9.528-22.344-28.805-20.72-40.789z" fill="#FF8227"/>
  <path fill-rule="evenodd" clip-rule="evenodd" d="M258.078 141.612a.09.09 0 01.003.001l-.003-.001z" fill="#E55F1C"/>
  <path d="M252.221 209.664c44.199-9.862 29.103-45.63 22.128-58.347a17.069 17.069 0 01-2.01-9.735c1.498-16.495.558-67.843-64.502-90.92-14.249-5.056-27.103-6.5-38.598-5.447l.188.052c7.575.669 20.692 2.863 29.421 5.447 51.061 15.112 67.016 72.592 59.34 90.847a.09.09 0 01-.107.052l-.003-.001a.093.093 0 00-.118.082c-.28 3.33.412 6.692 2.02 9.623 6.975 12.717 22.07 48.485-22.129 58.347l-.179.04c4.042 1.136 8.76 1.252 14.549-.04z" fill="#E55F1C"/>
  <path d="M123.7 174.376c7.122-4.892 15.186-10.43 28.359-11.896 7.803-2.916 7.656-6.41 7.656-6.41.735-1.363-25.993 3.713-36.015 14.567-10.022 10.854-15.972 11.628-15.972 11.628 5.937-.996 10.696-4.265 15.972-7.889z" fill="#FFAD55"/>
  <path d="M70.023 157.395a39.43 39.43 0 00-1.585 8.386c.965-4.161 1.735-5.25 3.897-3.713a72.817 72.817 0 01-2.312-4.673z" fill="#FFF8F4"/>
  <path d="M70.023 157.395c-2.015-6.839-1.858-13.765-1.122-19.194l.62-2.983c-2.667 3.505-5.013 7.63-6.982 12.48-10.203 25.14 7.332 54.219 36.72 73.586l21.038 11.337s-16.909-11.346-25.708-20.28c-16.281-16.531-27.484-29.775-26.151-46.56a39.43 39.43 0 011.586-8.386z" fill="#FFF8F4"/>
  <path d="M62.54 147.698l1.323.537-1.324-.537zm222.62 44.147l1.426.074-1.426-.074zm-173.842 42.008a1.428 1.428 0 002.533-1.321l-2.533 1.321zm-18.157-16.854l-.856 1.143.856-1.143zm160.463 18.923a1.43 1.43 0 001.169 2.607l-1.169-2.607zM63.863 148.235c5.05-12.443 12.595-19.909 21.649-24.398l-1.27-2.559c-9.701 4.81-17.723 12.817-23.026 25.883l2.647 1.074zm215.324 21.036c3.294 6.659 4.978 14.124 4.546 22.501l2.853.147c.457-8.87-1.33-16.82-4.838-23.915l-2.561 1.267zm-165.336 63.261c-1.88-3.603-5.477-6.691-9.172-9.369-1.867-1.353-3.812-2.638-5.641-3.85-1.842-1.22-3.558-2.361-5.021-3.457l-1.712 2.286c1.54 1.154 3.327 2.341 5.155 3.552 1.84 1.22 3.733 2.47 5.542 3.782 3.658 2.651 6.768 5.41 8.316 8.377l2.533-1.321zm-19.834-16.676c-25.486-19.086-39.252-45.205-30.154-67.621l-2.647-1.074c-9.855 24.28 5.276 51.65 31.089 70.981l1.712-2.286zm189.716-24.084c-.59 11.459-3.839 20.551-9.038 27.732-5.205 7.187-12.423 12.539-21.071 16.418l1.169 2.607c9.003-4.038 16.658-9.676 22.215-17.35 5.562-7.681 8.963-17.32 9.578-29.26l-2.853-.147z" fill="#8D3621"/>
  <path d="M91.733 128.648c4.9-3.398 9.046-14.446 11.862-21.956 4.671-12.458 29.841-59.011 78.134-61.622-54.589-3.594-82.786 48.298-87.759 61.559-2.816 7.509-8.363 12.764-13.263 16.162-5.563 3.857-10.897 8.702-11.806 15.409-1.624 11.984-.428 31.261 20.72 40.789-28.166-12.69-19.102-35.632 2.112-50.341z" fill="#FFAD55"/>
  <g opacity=".9" filter="url(#w68WfGejOe)">
    <path d="M158.181 120.814l48.744 10.548-12.342 40.39-40.811-7.937 4.409-43.001z" fill="url(#w68WfGejOf)"/>
  </g>
  <path opacity=".6" d="M199.81 132.361l-5.495 38.513" stroke="url(#w68WfGejOg)" stroke-width="6.221"/>
  <path opacity=".5" d="M163.166 123.221l-7.702 38.132" stroke="url(#w68WfGejOh)" stroke-width="6.221"/>
  <g filter="url(#w68WfGejOi)">
    <ellipse cx="229.749" cy="147.938" rx="24.711" ry="34.718" transform="rotate(8.609 229.749 147.938)" fill="#fff"/>
  </g>
  <ellipse cx="225.392" cy="155.29" rx="12.725" ry="20.139" transform="rotate(2.169 225.392 155.29)" fill="#372519"/>
  <ellipse cx="232.135" cy="149.635" rx="6.57" ry="7.141" fill="#fff"/>
  <g filter="url(#w68WfGejOj)">
    <path d="M152.013 130.268c-4.229 19.214-15.302 30.559-28.175 28.61-12.873-1.949-21.245-17.163-18.443-35.668 2.801-18.505 15.301-30.56 28.174-28.61 12.874 1.948 22.673 16.453 18.444 35.668z" fill="#fff"/>
  </g>
  <ellipse cx="129.85" cy="135.168" rx="12.617" ry="20.277" transform="rotate(18.784 129.85 135.168)" fill="#372519"/>
  <ellipse cx="139.268" cy="129.697" rx="5.427" ry="6.284" fill="#fff"/>
  <path d="M197.052 72.24c-11.755-3.427-58.378-3.72-65.311-8.75-8.424-8.237 44.584-25.617 72.524-14.053 66.315 30.367 75.323 66.814-7.213 22.802z" fill="url(#w68WfGejOk)" fill-opacity=".16"/>
  <path d="M274.264 84.255c10.55-5.025 22.761.239 27.694 10.832l3.299 7.083c5.874 12.613 1.242 27.814-11.523 33.352-12.556 5.447-25.957 9.28-26.533 1.158-1.095-15.422-4.078-24.701-11.18-34.811-3.813-5.43 7.215-12.36 18.243-17.614z" fill="#9F3A30" stroke="url(#w68WfGejOl)" stroke-width="3.53"/>
  <g filter="url(#w68WfGejOm)">
    <path d="M271.855 96.348c8.533-5.386 19.089-.048 23.349 9.099 4.58 9.835.98 21.753-9.049 25.891-8.278 3.416-16.514 5.444-16.855.19-.694-10.679-2.817-11.904-4.923-23.623-.85-4.729 2.81-8.61 7.478-11.557z" fill="#F56E38"/>
  </g>
  <path d="M252.408 209.717c44.199-9.863 29.104-45.63 22.128-58.347a16.944 16.944 0 01-1.97-6.235c-.259-2.279-.611-4.569-1.187-6.789-4.419-17.032-2.526-66.838-63.354-87.632-14.307-4.891-27.103-6.499-38.598-5.447 7.575.669 20.692 2.863 29.421 5.447 49.51 14.653 66.014 69.139 59.974 89.078-.377 1.242-.761 2.502-.731 3.8a17.003 17.003 0 002.076 7.778c6.975 12.717 22.07 48.484-22.128 58.347l-.18.039c4.042 1.137 8.76 1.252 14.549-.039z" fill="#E55F1C"/>
  <path fill-rule="evenodd" clip-rule="evenodd" d="M102.318 167.379c6.916.684 12.735-.919 12.998-3.579.264-2.661-5.129-5.373-12.045-6.057-6.915-.684-12.734.918-12.998 3.579-.263 2.661 5.13 5.373 12.045 6.057zm138.589 28.868c6.816 1.358 12.764.332 13.286-2.29.523-2.622-4.579-5.849-11.394-7.206-6.815-1.358-12.764-.333-13.286 2.29-.523 2.622 4.579 5.848 11.394 7.206z" fill="#F0531E"/>
  <path d="M175.3 163.758c-53.333-10.029-51.117 29.497-83.986 15.962l5.846 3.485c34.652 15.613 31.447-25.429 85.679-15.231l-7.539-4.216z" fill="#FFF4EF"/>
  <path d="M130.792 186.425c-3.233 28.722 35.38 36.521 38.614 0-5.516 38.994 28.723 39.565 37.282 16.549" stroke="#31220F" stroke-width="4.147" stroke-linecap="round"/>
  <path d="M151.023 163.606c.825-4.677 4.955-8.042 9.694-7.739 4.796.307 10.776.817 15.364 1.626 4.589.809 10.383 2.375 14.994 3.727 4.557 1.336 7.288 5.911 6.463 10.588-2.14 12.139-13.716 20.244-25.855 18.104l-2.556-.451c-12.139-2.14-20.244-13.716-18.104-25.855z" fill="#31220F"/>
  <path d="M156.957 166.272c.604-3.428 3.632-5.894 7.105-5.672 3.515.225 7.899.599 11.262 1.192 3.362.593 7.609 1.741 10.989 2.732 3.341.979 5.342 4.332 4.737 7.76-1.568 8.897-10.053 14.838-18.95 13.269l-1.874-.33c-8.897-1.569-14.838-10.053-13.269-18.951z" fill="#FF9874"/>
  <path d="M154.609 61.425c13.12-4.433 27.031-5.195 42.806-2.257l2.844 3.39 4.936-1.585c14.457 3.346 30.347 12.436 39.308 24.138.694.906-.353 1.853-1.259 1.158-15.013-11.523-24.656-17.056-40.89-19.876l-4.296 1.903 1.231 7.401c9.543 2.106 19.229 7.306 27.113 16.316.769.88-.284 1.977-1.256 1.33-9.419-6.273-17.972-10.449-27.293-13.005l-2.459 3.668a2.07 2.07 0 01-.879.74l-.712.317a2.073 2.073 0 01-2.734-1.045l-.162-.36a2.068 2.068 0 01-.176-.687l-.341-4.309c-8.118-1.441-17.049-1.862-27.712-1.532-1.255.04-1.524-1.765-.299-2.035 10.506-2.31 16.905-2.477 29.537-1.583l6.142-5.216-3.107-3.963c-13.158-2.903-24.105-3.298-39.871-1.185-1.202.161-1.621-1.335-.471-1.723zm54.365 36.322c-3.271-3.405-6.71-5.567-10.04-7.017-2.005-.873-4.199-1.168-6.385-1.168h-2.159c-2.042-1.523-4.521-2.373-7.068-2.319-3.251.07-6.47.316-10.248 1.181-1.209.277-.843 1.852.394 1.76 6.549-.492 12.131-.206 16.013.71 4.628 1.092 11.126 3.803 18.306 8.172.987.6 1.987-.486 1.187-1.32z" fill="#31220F"/>
  <path fill-rule="evenodd" clip-rule="evenodd" d="M127.022 64.49c-18.534 15.074-28.924 35.198-31.714 42.64-2.956 7.882-8.754 13.345-13.788 16.835-5.538 3.84-10.384 8.376-11.204 14.427-.795 5.867-.883 13.425 1.747 20.634 3.49 9.567 11.424 14.413 18.86 20.55-10.145-3.691-17.605-8.776-21.544-19.571-2.848-7.807-2.722-15.879-1.894-21.996.998-7.365 6.821-12.518 12.408-16.391 4.767-3.306 10.063-8.353 12.74-15.491 2.921-7.79 13.566-28.383 32.587-43.853 19.1-15.534 46.653-25.886 83.095-12.959 32.881 11.664 48.455 31.481 56.801 49.626 8.323 18.094 9.407 34.385 8.646 42.77-.281 3.09.353 6.21 1.839 8.92 3.512 6.402 9.21 18.835 8.298 31.037-.459 6.153-2.603 12.275-7.558 17.491-6.853 7.214-15.808 10.276-25.514 10.816 5.08-2.297 10.481-4.14 15.386-6.775 3.337-1.792 5.982-3.824 8.057-6.009 4.428-4.661 6.362-10.126 6.781-15.736.846-11.327-4.491-23.136-7.954-29.451a18.493 18.493 0 01-2.18-10.551c.736-8.11-.358-23.845-8.396-41.318-8.014-17.422-22.983-36.714-55.161-48.128-35.357-12.542-61.883-2.526-80.338 12.483z" fill="#8D3621"/>
  <path d="M194.527 134.558c-.206-.763-1.13-.763-1.541-.201-.593.803-.889 1.888-1.326 2.782-.387.813-.738 1.682-.502 2.586a.616.616 0 00.748.426c1.024-.261 1.612-1.185 2.014-2.093.467-1.06.918-2.345.607-3.5zm-27.684-13.582c-.641-.463-1.358.119-1.324.815.047.997.5 2.026.725 2.995.212.875.487 1.771 1.24 2.324.272.2.655.122.85-.14.63-.848.504-1.936.243-2.895-.305-1.116-.765-2.399-1.734-3.099zm2.943 9.145c-.42-.669-1.303-.399-1.532.26-.331.941-.297 2.065-.452 3.048-.132.891-.213 1.824.277 2.619a.617.617 0 00.841.189c.902-.55 1.193-1.605 1.311-2.592.136-1.15.192-2.511-.445-3.524zm.057 16.975c-.517-.599-1.349-.198-1.476.488-.185.981.019 2.086.013 3.081.005.901.065 1.836.67 2.548.219.257.61.269.86.059.809-.679.937-1.767.905-2.76-.04-1.157-.19-2.511-.972-3.416zm22.676-1.492c-.206-.763-1.13-.763-1.542-.201-.592.804-.889 1.888-1.325 2.782-.387.814-.738 1.682-.502 2.586a.616.616 0 00.748.427c1.024-.261 1.611-1.185 2.013-2.094.467-1.059.919-2.345.608-3.5zm-3.138-6.482c-.491-.62-1.34-.254-1.495.426-.226.972-.068 2.085-.115 3.079-.033.9-.012 1.837.563 2.573a.616.616 0 00.856.096c.837-.645 1.01-1.726 1.019-2.72.009-1.158-.085-2.517-.828-3.454zm10.465-8.213c-.081-.361-.251-.552-.477-.798-.211-.226-.568-.216-.804-.035l-.08.035a.861.861 0 00-.306.311c-.146.211-.236.442-.347.673-.236.507-.532.989-.683 1.531-.296 1.07 1.035 1.788 1.813 1.055.532-.497.793-1.165.889-1.873.04-.301.06-.598-.005-.899z" fill="#F26F26"/>
  <path d="M137.652 68.884c-1.19-.602-2.4.457-3.183 1.286-.969 1.03-1.768 2.35-1.808 3.766-.025.823.879 1.225 1.547.888 1.074-.542 1.556-1.511 2.189-2.495.552-.854 1.581-1.637 1.707-2.661.035-.292-.196-.653-.452-.784zm-48.705 69.794c-1.19-.603-2.4.457-3.183 1.285-.97 1.03-1.768 2.35-1.808 3.766-.025.824.879 1.225 1.547.889 1.074-.542 1.556-1.512 2.189-2.496.552-.853 1.582-1.637 1.707-2.661.035-.291-.196-.653-.452-.783zm39.562-64.848c-.864.562-1.451 1.356-2.064 2.169-.683.919-1.546 2.044-1.18 3.244.181.592.803.984 1.421.808 1.075-.316 1.612-1.386 2.144-2.295.572-.974 1.13-1.877 1.25-3.027.081-.784-.949-1.3-1.571-.9zm-48.578 68.301c-.864.562-1.451 1.355-2.064 2.169-.683.919-1.546 2.043-1.18 3.243.181.593.804.985 1.421.809 1.075-.316 1.612-1.386 2.144-2.295.573-.974 1.13-1.878 1.25-3.028.08-.783-.948-1.3-1.571-.898zm51.334-63.968c-.537.91-1.355 1.893-1.561 2.943-.131.647.406 1.325 1.109 1.114 1.487-.451 2.134-2.159 2.32-3.55.141-1.039-1.401-1.3-1.868-.507zM82.56 147.957c-.537.909-1.355 1.893-1.561 2.942-.13.648.407 1.326 1.11 1.115 1.486-.452 2.133-2.159 2.32-3.55.14-1.039-1.402-1.301-1.869-.507zm41.003-65.767c-.758.643-1.732 1.33-2.139 2.27-.201.462-.206.949.17 1.33.432.432 1.12.407 1.552 0 .351-.331.618-.733.899-1.104.286-.382.597-.738.904-1.105.823-.969-.417-2.21-1.386-1.39zm-49.367 69.378c-.348.932-.861 2.008-.757 3.026.05.501.285.929.8 1.077.587.166 1.175-.192 1.353-.758.145-.461.18-.942.244-1.403.063-.473.16-.936.249-1.406.244-1.248-1.444-1.723-1.89-.536zm68.06-90.918c-2.179.1-4.443 2.129-5.342 4.026-.457.96.718 2.019 1.531 1.18.698-.713 1.391-1.416 2.165-2.053.798-.663 1.692-1.32 2.149-2.28.175-.371-.031-.894-.503-.873zm-48.704 69.793c-2.18.1-4.444 2.129-5.343 4.027-.457.959.718 2.018 1.532 1.18.698-.713 1.39-1.416 2.164-2.054.798-.663 1.692-1.32 2.149-2.279.175-.372-.03-.894-.502-.874z" fill="#FF9A2E"/>
  <path d="M176.497 149.87c-.13-1.08-.582-2.325-1.832-2.355-.156-.005-.347.09-.417.236-.316.718-.121 1.361-.09 2.119.025.793-.302 1.576-.056 2.35.171.542.909.984 1.431.587.909-.703 1.095-1.833.964-2.937zm8.813 1.691c-.121-1.035-1.331-1.436-1.953-.532-.362.532-.518 1.18-.718 1.782-.241.733-.493 1.421-.588 2.189-.126 1.02 1.396 1.592 2.029.844.527-.623.793-1.326.969-2.114.155-.693.346-1.456.261-2.169zm-8.149-20.797c-.196-.446-.939-.411-1.14 0-.572 1.17-.949 2.355-1.331 3.611-.195.642-.497 2.661.774 2.535 1.285-.12 1.652-1.496 1.903-2.581.306-1.31.321-2.339-.206-3.565zm-5.018 7.296c-.317-.784-1.286-.784-1.602 0-.462 1.154-.397 2.591-.487 3.821-.06.803-.321 2.726 1.004 2.726 1.18 0 1.336-1.466 1.401-2.33.1-1.32.181-2.967-.316-4.217zm13.447 3.123c-.181-.869-1.36-.904-1.782-.231-.633.999-.969 2.199-1.406 3.294-.291.728-.783 2.355.366 2.671 1.205.331 1.888-1.075 2.255-1.948.507-1.205.838-2.486.567-3.786zm-5.158-1.923c-.281-1.065-1.813-1.024-2.114 0-.191.668-.266 1.366-.457 2.039-.206.738-.472 1.431-.256 2.199.186.637.984 1.024 1.577.637 1.39-.908 1.641-3.374 1.25-4.875zm1.398-17.755c-.231-.814-1.391-.793-1.632 0-.392 1.3-.442 2.716-.673 4.057-.196 1.16-.427 2.154.045 3.269.191.442.783.391 1.09.135.934-.778 1.104-1.923 1.245-3.083.171-1.446.321-2.957-.075-4.378zm8.178 5.521c-.206-.763-1.129-.763-1.541-.201-.593.804-.889 1.888-1.326 2.782-.386.813-.738 1.682-.502 2.586a.617.617 0 00.748.427c1.025-.261 1.612-1.185 2.014-2.094.467-1.06.919-2.345.607-3.5z" fill="#F26F26"/>
  <path d="M131.46 241.792c.065 3.893.14 8 2.375 11.354.404.601.97.878 1.69.75 2.548-.443.052-3.539-.525-4.559-1.369-2.41-2.007-5.146-3.283-7.611-.062-.122-.262-.076-.257.066zm-10.073-6.37c-.128-.155-.397-.133-.499.035-.825 1.363-.559 2.981-.304 4.486.263 1.534.661 3.237 2.017 4.15.375.246.881.056 1.03-.355.495-1.395-.057-2.719-.514-4.056-.49-1.438-.743-3.063-1.73-4.26zm-4.521-.877c-.106-.129-.3-.094-.346.071-.271 1.076-.215 2.027.004 3.11.253 1.248.354 2.666 1.36 3.549.316.278.726.06.837-.295.356-1.139-.159-2.301-.465-3.404-.315-1.134-.646-2.104-1.39-3.031zm22.106 15.045c-.143-.174-.394-.133-.462.091-.486 1.619-.117 3.327.174 4.956.263 1.452.463 3.048 1.629 4.05a.72.72 0 001.167-.39c.334-1.392-.29-2.735-.671-4.064-.453-1.595-.764-3.334-1.837-4.643zm11.667 6.434c-.349-.383-.956-.246-1.058.28-.316 1.691.366 3.441.918 5.022.566 1.614 1.078 3.348 2.512 4.395a.672.672 0 001.062-.441c.242-1.54-.398-2.889-.984-4.288-.701-1.666-1.211-3.618-2.45-4.968zm6.57 6.317c-.229-.286-.793-.121-.847.232-.189 1.192.036 2.338.198 3.517.159 1.17.305 2.447 1.177 3.312.337.335.914.161 1.042-.285.325-1.151-.058-2.416-.311-3.549-.259-1.173-.508-2.272-1.259-3.227z" fill="#FFECE3"/>
  <path d="M251.312 239.42c-.456-.517-1.283-.075-1.286.546-.007 1.069.242 2.036.033 3.118-.198 1.028-.706 2.013-.765 3.058-.027.465.493.63.843.481 2.258-.987 2.695-5.497 1.175-7.203zm-17.889 9.32c.795-1.266 1.711-3.314 1.094-4.809-.127-.3-.505-.474-.769-.198-.8.861-1.187 2.133-1.841 3.124-.758 1.141-1.854 1.873-2.423 3.136-.132.293-.034.761.35.806 1.607.196 2.747-.711 3.589-2.059zm5.505-.585c-.048-.812-1.264-1.264-1.645-.415-.524 1.146-.998 2.269-1.693 3.324-.64.969-1.631 1.889-1.671 3.114-.011.32.298.629.621.608 2.608-.181 4.515-4.356 4.388-6.631zm-16.115 7.257c-.03-.156-.201-.232-.346-.199-1.289.313-2.097 1.511-3.003 2.401-1.001.973-2.706 1.638-3.281 2.944-.208.464-.011.916.47 1.085 2.627.905 6.674-3.726 6.16-6.231zm4.046 3.835c.774-.964 1.511-2.112 1.323-3.384-.08-.55-.956-.775-1.296-.334a43.927 43.927 0 01-2.131 2.594c-.726.814-1.554 1.703-1.62 2.847-.014.295.283.586.574.562 1.38-.111 2.344-1.282 3.15-2.285zm-15.535 1.99c.304-.749-.468-1.948-1.317-1.289-.673.522-1.402 1.024-2.205 1.327-.704.267-1.678.43-2.162 1.046-.252.315-.269.685.008.991.747.822 2.161.59 3.088.254 1.142-.414 2.125-1.181 2.588-2.329z" fill="#E19B6C"/>
  <path d="M205.683 254.682c1.455-1.553 3.356-3.636 4.139-5.622.084-.223-.088-.516-.349-.466-1.67.302-2.922 1.86-4.017 3.068-1.578 1.731-3.525 2.621-5.278 4.093-.377.313-.199.837.242.952 2.063.53 3.863-.538 5.263-2.025zm-4.583 7.984c.565-.841 1.357-1.924 1.382-2.971.017-.643-.682-.952-1.204-.7-.859.412-1.474 1.495-2.02 2.233-.664.899-1.396 1.801-1.559 2.937-.067.465.259.82.735.735 1.207-.213 2.027-1.268 2.666-2.234zm-12.701 6.515c.118-.613-.734-.992-1.046-.413a76.134 76.134 0 01-2.426 4.097c-.843 1.341-1.963 2.365-2.605 3.83-.186.425.129.849.594.758 3.568-.73 4.873-5.178 5.483-8.272zm7.016-4.611c.368-.835-.536-1.623-1.273-1.006-1.043.871-1.857 1.988-2.709 3.044-.761.947-1.551 1.77-1.781 2.994-.083.449.247.821.71.738 2.387-.422 4.143-3.753 5.053-5.77zm24.284-13.494c.228-.71.345-1.537.096-2.255-.099-.284-.451-.337-.614-.081-.394.593-.607 1.31-.848 1.977-.213.59-.558 1.218-.277 1.84.074.166.291.234.458.195.717-.171.994-1.051 1.185-1.676z" fill="#F1B78F"/>
  <defs>
    <filter id="w68WfGejOb" x="57.543" y="113.732" width="229.759" height="134.401" filterUnits="userSpaceOnUse" color-interpolation-filters="sRGB">
      <feFlood flood-opacity="0" result="BackgroundImageFix"/>
      <feBlend mode="normal" in="SourceGraphic" in2="BackgroundImageFix" result="shape"/>
      <feGaussianBlur stdDeviation="1.037" result="effect1_foregroundBlur_347_37996"/>
    </filter>
    <filter id="w68WfGejOd" x="85.782" y="59.94" width="32.991" height="37.659" filterUnits="userSpaceOnUse" color-interpolation-filters="sRGB">
      <feFlood flood-opacity="0" result="BackgroundImageFix"/>
      <feBlend mode="normal" in="SourceGraphic" in2="BackgroundImageFix" result="shape"/>
      <feColorMatrix in="SourceAlpha" type="matrix" values="0 0 0 0 0 0 0 0 0 0 0 0 0 0 0 0 0 0 127 0" result="hardAlpha"/>
      <feOffset dx="6.855" dy="2.856"/>
      <feComposite in2="hardAlpha" operator="arithmetic" k2="-1" k3="1"/>
      <feColorMatrix type="matrix" values="0 0 0 0 1 0 0 0 0 0.535714 0 0 0 0 0.35 0 0 0 1 0"/>
      <feBlend mode="normal" in2="shape" result="effect1_innerShadow_347_37996"/>
    </filter>
    <filter id="w68WfGejOe" x="149.625" y="116.667" width="61.447" height="59.232" filterUnits="userSpaceOnUse" color-interpolation-filters="sRGB">
      <feFlood flood-opacity="0" result="BackgroundImageFix"/>
      <feBlend mode="normal" in="SourceGraphic" in2="BackgroundImageFix" result="shape"/>
      <feGaussianBlur stdDeviation="2.074" result="effect1_foregroundBlur_347_37996"/>
    </filter>
    <filter id="w68WfGejOi" x="204.765" y="113.409" width="49.968" height="69.058" filterUnits="userSpaceOnUse" color-interpolation-filters="sRGB">
      <feFlood flood-opacity="0" result="BackgroundImageFix"/>
      <feBlend mode="normal" in="SourceGraphic" in2="BackgroundImageFix" result="shape"/>
      <feColorMatrix in="SourceAlpha" type="matrix" values="0 0 0 0 0 0 0 0 0 0 0 0 0 0 0 0 0 0 127 0" result="hardAlpha"/>
      <feOffset dx="3.013" dy="2.511"/>
      <feComposite in2="hardAlpha" operator="arithmetic" k2="-1" k3="1"/>
      <feColorMatrix type="matrix" values="0 0 0 0 0.945833 0 0 0 0 0.441808 0 0 0 0 0.0748785 0 0 0 1 0"/>
      <feBlend mode="normal" in2="shape" result="effect1_innerShadow_347_37996"/>
    </filter>
    <filter id="w68WfGejOj" x="104.854" y="94.393" width="48.157" height="64.701" filterUnits="userSpaceOnUse" color-interpolation-filters="sRGB">
      <feFlood flood-opacity="0" result="BackgroundImageFix"/>
      <feBlend mode="normal" in="SourceGraphic" in2="BackgroundImageFix" result="shape"/>
      <feColorMatrix in="SourceAlpha" type="matrix" values="0 0 0 0 0 0 0 0 0 0 0 0 0 0 0 0 0 0 127 0" result="hardAlpha"/>
      <feOffset dx="3.013" dy="2.511"/>
      <feComposite in2="hardAlpha" operator="arithmetic" k2="-1" k3="1"/>
      <feColorMatrix type="matrix" values="0 0 0 0 0.945833 0 0 0 0 0.441808 0 0 0 0 0.0748785 0 0 0 1 0"/>
      <feBlend mode="normal" in2="shape" result="effect1_innerShadow_347_37996"/>
    </filter>
    <filter id="w68WfGejOm" x="264.253" y="94.194" width="32.914" height="40.542" filterUnits="userSpaceOnUse" color-interpolation-filters="sRGB">
      <feFlood flood-opacity="0" result="BackgroundImageFix"/>
      <feBlend mode="normal" in="SourceGraphic" in2="BackgroundImageFix" result="shape"/>
      <feColorMatrix in="SourceAlpha" type="matrix" values="0 0 0 0 0 0 0 0 0 0 0 0 0 0 0 0 0 0 127 0" result="hardAlpha"/>
      <feOffset dx="4.57" dy="1.143"/>
      <feComposite in2="hardAlpha" operator="arithmetic" k2="-1" k3="1"/>
      <feColorMatrix type="matrix" values="0 0 0 0 0 0 0 0 0 0 0 0 0 0 0 0 0 0 0.15 0"/>
      <feBlend mode="normal" in2="shape" result="effect1_innerShadow_347_37996"/>
    </filter>
    <linearGradient id="w68WfGejOf" x1="183.389" y1="123.971" x2="169.341" y2="168.704" gradientUnits="userSpaceOnUse">
      <stop stop-color="#FF5F5F" stop-opacity="0"/>
      <stop offset="0" stop-color="#F38318" stop-opacity="0"/>
      <stop offset="1" stop-color="#FF6B00"/>
    </linearGradient>
    <linearGradient id="w68WfGejOg" x1="199.971" y1="132.386" x2="194.153" y2="170.849" gradientUnits="userSpaceOnUse">
      <stop stop-color="#E66418" stop-opacity="0"/>
      <stop offset="1" stop-color="#E66418"/>
    </linearGradient>
    <linearGradient id="w68WfGejOh" x1="163.326" y1="123.254" x2="155.304" y2="161.319" gradientUnits="userSpaceOnUse">
      <stop stop-color="#FFAD55" stop-opacity="0"/>
      <stop offset="1" stop-color="#FFAD55"/>
    </linearGradient>
    <linearGradient id="w68WfGejOk" x1="201.51" y1="48.384" x2="191.87" y2="81.459" gradientUnits="userSpaceOnUse">
      <stop stop-color="#fff"/>
      <stop offset="1" stop-color="#fff" stop-opacity="0"/>
    </linearGradient>
    <linearGradient id="w68WfGejOl" x1="304.433" y1="100.401" x2="255.119" y2="121.507" gradientUnits="userSpaceOnUse">
      <stop stop-color="#F6822B"/>
      <stop offset=".693" stop-color="#F6822B"/>
      <stop offset=".927" stop-color="#F6822B" stop-opacity="0"/>
      <stop offset="1" stop-color="#F6822B" stop-opacity="0"/>
    </linearGradient>
  </defs>
</svg>
