<svg xmlns="http://www.w3.org/2000/svg" fill="none" viewBox="0 0 38 20">
  <path fill-rule="evenodd" clip-rule="evenodd" d="M2.016 19.2c-1.171 0-2.133-.959-2.004-2.13C1.065 7.47 9.154 0 18.977 0s17.912 7.469 18.965 17.07c.128 1.171-.833 2.13-2.004 2.13h-2.12c0-8.247-6.645-14.933-14.841-14.933-8.197 0-14.841 6.686-14.841 14.933h-2.12z" fill="url(#oD_Nk1aud1Sa)"/>
  <path fill-rule="evenodd" clip-rule="evenodd" d="M6.236 19.2c0-7.07 5.691-12.8 12.71-12.8 7.02 0 12.711 5.73 12.711 12.8h-4.236c0-4.713-3.794-8.533-8.474-8.533s-8.474 3.82-8.474 8.533H6.236z" fill="url(#oD_Nk1aud1Sb)"/>
  <path fill-rule="evenodd" clip-rule="evenodd" d="M12.592 19.2c0-3.535 2.845-6.4 6.355-6.4 3.51 0 6.355 2.865 6.355 6.4h-3.177c-.585 0-1.038-.506-1.319-1.023a2.116 2.116 0 00-1.86-1.11c-.801 0-1.499.448-1.859 1.11-.28.517-.733 1.023-1.318 1.023h-3.177z" fill="url(#oD_Nk1aud1Sc)"/>
  <defs>
    <linearGradient id="oD_Nk1aud1Sa" x1="1.992" y1="19.2" x2="18.977" y2="19.2" gradientUnits="userSpaceOnUse">
      <stop stop-color="#1877F2"/>
      <stop offset="1" stop-color="#04A4F4"/>
    </linearGradient>
    <linearGradient id="oD_Nk1aud1Sb" x1="8.321" y1="19.2" x2="18.947" y2="19.2" gradientUnits="userSpaceOnUse">
      <stop stop-color="#2ABBA7"/>
      <stop offset="1" stop-color="#45BD62"/>
    </linearGradient>
    <linearGradient id="oD_Nk1aud1Sc" x1="14.66" y1="19.2" x2="18.947" y2="19.2" gradientUnits="userSpaceOnUse">
      <stop stop-color="#F02849"/>
      <stop offset="1" stop-color="#F5533D"/>
    </linearGradient>
  </defs>
</svg>
