<svg xmlns="http://www.w3.org/2000/svg" fill="none" viewBox="0 0 63 15">
  <g clip-path="url(#g9CxYUJIva)">
    <path d="M31.13 3.6c-2.426 0-4.175 1.595-4.175 3.988 0 2.392 1.969 3.987 4.394 3.987 1.466 0 2.758-.584 3.558-1.57l-1.681-.98c-.444.49-1.119.776-1.877.776-1.052 0-1.946-.554-2.278-1.44h6.156a3.98 3.98 0 00.077-.776c0-2.39-1.749-3.985-4.174-3.985zm-2.08 3.212c.275-.884 1.026-1.44 2.076-1.44 1.053 0 1.804.556 2.077 1.44H29.05zM54.79 3.6c-2.426 0-4.175 1.595-4.175 3.988 0 2.392 1.969 3.987 4.395 3.987 1.465 0 2.757-.584 3.557-1.57l-1.681-.98c-.444.49-1.118.776-1.876.776-1.053 0-1.947-.554-2.279-1.44h6.157a4.06 4.06 0 00.077-.776c0-2.39-1.75-3.985-4.175-3.985zm-2.077 3.212c.275-.884 1.027-1.44 2.077-1.44 1.052 0 1.804.556 2.076 1.44h-4.153zm-8.575.776c0 1.329.861 2.215 2.197 2.215.905 0 1.584-.414 1.934-1.09l1.687.981c-.699 1.175-2.008 1.881-3.62 1.881-2.429 0-4.175-1.595-4.175-3.987 0-2.393 1.748-3.988 4.174-3.988 1.613 0 2.92.707 3.621 1.88l-1.687.982c-.35-.675-1.029-1.09-1.934-1.09-1.334 0-2.197.886-2.197 2.216zM62.26 1.163v10.19h-1.977V1.164h1.977zM8.26.055l8.119 14.179H.14L8.259.055zm20.298 1.108l-6.089 10.634L16.38 1.163h2.283l3.805 6.646 3.806-6.646h2.283zM41.5 3.822v2.146a2.485 2.485 0 00-.703-.108c-1.276 0-2.197.886-2.197 2.215v3.279h-1.977V3.822H38.6V5.86c0-1.126 1.299-2.039 2.9-2.039z" fill="#000"/>
  </g>
  <defs>
    <clipPath id="g9CxYUJIva">
      <path fill="#fff" d="M0 0h62.4v14.4H0z"/>
    </clipPath>
  </defs>
</svg>
